<svg width="920" height="640" viewBox="0 0 920 640" fill="none" xmlns="http://www.w3.org/2000/svg">
  <rect width="920" height="640" rx="28" fill="#090A0D"/>
  <rect x="24" y="24" width="872" height="592" rx="22" fill="#0F1217" stroke="white" stroke-opacity="0.08"/>
  <rect x="46" y="44" width="470" height="548" rx="18" fill="white" fill-opacity="0.03" stroke="white" stroke-opacity="0.06"/>
  <rect x="542" y="44" width="332" height="548" rx="18" fill="#0D0F14" stroke="#35D39A" stroke-opacity="0.2"/>
  <rect x="564" y="66" width="288" height="62" rx="14" fill="white" fill-opacity="0.05"/>
  <rect x="580" y="83" width="18" height="18" rx="6" fill="#35D39A" fill-opacity="0.22" stroke="#35D39A" stroke-opacity="0.3"/>
  <path d="M589 86L596 90V98L589 102L582 98V90L589 86Z" stroke="white" stroke-width="1.8" stroke-linejoin="round"/>
  <rect x="610" y="82" width="86" height="8" rx="4" fill="white" fill-opacity="0.9"/>
  <rect x="610" y="96" width="120" height="6" rx="3" fill="white" fill-opacity="0.4"/>

  <rect x="564" y="148" width="288" height="112" rx="14" fill="white" fill-opacity="0.045" stroke="white" stroke-opacity="0.06"/>
  <rect x="580" y="168" width="86" height="7" rx="3.5" fill="white" fill-opacity="0.42"/>
  <rect x="580" y="188" width="214" height="8" rx="4" fill="white" fill-opacity="0.92"/>
  <rect x="580" y="205" width="238" height="8" rx="4" fill="white" fill-opacity="0.82"/>
  <rect x="580" y="226" width="186" height="7" rx="3.5" fill="white" fill-opacity="0.36"/>

  <rect x="564" y="278" width="288" height="128" rx="14" fill="white" fill-opacity="0.045" stroke="white" stroke-opacity="0.06"/>
  <rect x="580" y="298" width="108" height="7" rx="3.5" fill="white" fill-opacity="0.42"/>
  <rect x="580" y="318" width="226" height="8" rx="4" fill="white" fill-opacity="0.88"/>
  <rect x="580" y="336" width="248" height="8" rx="4" fill="white" fill-opacity="0.78"/>
  <rect x="580" y="356" width="194" height="7" rx="3.5" fill="white" fill-opacity="0.36"/>

  <rect x="564" y="424" width="288" height="146" rx="14" fill="white" fill-opacity="0.045" stroke="white" stroke-opacity="0.06"/>
  <rect x="580" y="444" width="96" height="7" rx="3.5" fill="white" fill-opacity="0.42"/>
  <rect x="580" y="463" width="246" height="8" rx="4" fill="white" fill-opacity="0.9"/>
  <rect x="580" y="481" width="252" height="8" rx="4" fill="white" fill-opacity="0.8"/>
  <rect x="580" y="499" width="214" height="8" rx="4" fill="white" fill-opacity="0.68"/>
  <rect x="580" y="522" width="166" height="7" rx="3.5" fill="white" fill-opacity="0.36"/>

  <rect x="76" y="84" width="356" height="8" rx="4" fill="white" fill-opacity="0.88"/>
  <rect x="76" y="104" width="390" height="8" rx="4" fill="white" fill-opacity="0.18"/>
  <rect x="76" y="156" width="404" height="8" rx="4" fill="white" fill-opacity="0.84"/>
  <rect x="76" y="176" width="370" height="8" rx="4" fill="white" fill-opacity="0.18"/>
  <rect x="76" y="228" width="396" height="8" rx="4" fill="white" fill-opacity="0.84"/>
  <rect x="76" y="248" width="338" height="8" rx="4" fill="white" fill-opacity="0.18"/>
  <rect x="76" y="300" width="420" height="8" rx="4" fill="white" fill-opacity="0.84"/>
  <rect x="76" y="320" width="370" height="8" rx="4" fill="white" fill-opacity="0.18"/>
  <rect x="76" y="372" width="388" height="8" rx="4" fill="white" fill-opacity="0.84"/>
  <rect x="76" y="392" width="356" height="8" rx="4" fill="white" fill-opacity="0.18"/>
  <rect x="76" y="444" width="412" height="8" rx="4" fill="white" fill-opacity="0.84"/>
  <rect x="76" y="464" width="324" height="8" rx="4" fill="white" fill-opacity="0.18"/>
  <rect x="76" y="516" width="372" height="8" rx="4" fill="white" fill-opacity="0.84"/>
  <rect x="76" y="536" width="268" height="8" rx="4" fill="white" fill-opacity="0.18"/>
</svg>
